<?xml version="1.0" standalone="no"?>
<!DOCTYPE svg PUBLIC "-//W3C//DTD SVG 20010904//EN"
 "http://www.w3.org/TR/2001/REC-SVG-20010904/DTD/svg10.dtd">
<svg version="1.0" xmlns="http://www.w3.org/2000/svg"
 width="400.000000pt" height="250.000000pt" viewBox="0 0 400.000000 250.000000"
 preserveAspectRatio="xMidYMid meet">

<g transform="translate(0.000000,250.000000) scale(0.100000,-0.100000)"
fill="#000000" stroke="none">
<path d="M250 1245 l0 -295 1755 0 1755 0 0 295 0 295 -1755 0 -1755 0 0 -295z
m290 169 c42 -17 80 -66 80 -103 0 -18 -6 -21 -46 -21 -37 0 -50 5 -66 25 -24
30 -61 32 -88 5 -28 -28 -28 -117 0 -148 30 -32 67 -29 88 8 16 28 21 30 67
28 47 -3 50 -5 47 -28 -5 -51 -64 -107 -124 -116 -56 -10 -105 4 -145 39 -44
39 -63 82 -63 145 0 134 124 216 250 166z m2150 -7 c101 -53 122 -205 42 -291
-79 -84 -223 -69 -279 30 -31 54 -31 144 0 199 44 79 152 107 237 62z m-1758
-151 c32 -88 58 -166 58 -173 0 -9 -15 -13 -50 -13 -45 0 -52 3 -60 25 -9 22
-15 25 -65 25 -50 0 -55 -2 -61 -25 -6 -23 -11 -25 -61 -25 -40 0 -54 3 -51
13 3 6 31 85 64 175 l59 163 54 -3 54 -3 59 -159z m208 34 l0 -130 75 0 75 0
0 -45 0 -45 -130 0 -130 0 0 175 0 175 55 0 55 0 0 -130z m500 89 c0 -38 -7
-50 -75 -124 -41 -46 -75 -86 -75 -89 0 -3 36 -6 80 -6 l80 0 0 -45 0 -45
-155 0 -155 0 0 43 c0 39 6 49 75 124 41 45 75 84 75 87 0 3 -31 6 -70 6 l-70
0 0 45 0 45 145 0 145 0 0 -41z m358 -1 l-3 -43 -92 -3 c-85 -2 -93 -4 -93
-22 0 -18 7 -20 85 -20 l85 0 0 -45 0 -45 -85 0 c-78 0 -85 -2 -85 -20 0 -19
7 -20 95 -20 l95 0 0 -45 0 -45 -144 0 -143 0 -7 38 c-3 20 -6 99 -6 175 l0
137 151 0 150 0 -3 -42z m322 23 c54 -28 75 -73 75 -158 0 -77 -13 -106 -69
-147 -23 -18 -45 -21 -147 -24 l-119 -4 0 176 0 176 113 0 c90 0 119 -4 147
-19z m657 -72 l48 -92 3 92 3 91 49 0 50 0 0 -175 0 -175 -52 0 -53 0 -50 92
-50 91 -3 -92 -3 -92 -52 3 -52 3 -3 173 -2 172 59 0 60 0 48 -91z m333 -84
l0 -175 -55 0 -55 0 0 175 0 175 55 0 55 0 0 -175z m321 6 c33 -90 59 -168 59
-173 0 -4 -24 -8 -54 -8 -49 0 -54 2 -60 25 -6 23 -11 25 -61 25 -50 0 -56 -3
-65 -25 -8 -22 -15 -25 -60 -25 -27 0 -50 3 -50 8 0 4 28 83 61 175 l62 168
55 -3 54 -3 59 -164z"/>
<path d="M2568 1329 c-42 -24 -41 -146 2 -169 57 -31 100 6 100 85 0 42 -5 60
-20 75 -22 22 -55 25 -82 9z"/>
<path d="M802 1251 c-16 -52 -16 -51 19 -51 32 0 33 2 8 68 -11 30 -14 28 -27
-17z"/>
<path d="M2170 1245 l0 -85 39 0 c31 0 44 6 60 26 47 60 10 144 -64 144 l-35
0 0 -85z"/>
<path d="M3501 1259 c-17 -48 -14 -59 15 -59 25 0 26 2 19 38 -9 52 -21 59
-34 21z"/>
</g>
</svg>
